<mxfile host="app.diagrams.net" agent="Mozilla/5.0 (X11; Ubuntu; Linux x86_64; rv:134.0) Gecko/20100101 Firefox/134.0" version="26.0.11">
  <diagram name="Page-1" id="b5b7bab2-c9e2-2cf4-8b2a-24fd1a2a6d21">
    <mxGraphModel grid="1" page="1" gridSize="10" guides="1" tooltips="1" connect="1" arrows="1" fold="1" pageScale="1" pageWidth="827" pageHeight="1169" background="none" math="0" shadow="0">
      <root>
        <mxCell id="0" />
        <mxCell id="1" parent="0" />
        <mxCell id="UMoyZUdoU4AQjq_q_Cfb-5" value="Front end" style="shape=folder;fontStyle=1;tabWidth=110;tabHeight=30;tabPosition=left;html=1;boundedLbl=1;labelInHeader=1;container=1;collapsible=0;recursiveResize=0;whiteSpace=wrap;" vertex="1" parent="1">
          <mxGeometry x="330" y="430" width="390" height="290" as="geometry" />
        </mxCell>
        <mxCell id="UMoyZUdoU4AQjq_q_Cfb-3" value="&amp;laquo;Annotation&amp;raquo;&lt;br/&gt;&lt;b&gt;Component&lt;/b&gt;" style="html=1;dropTarget=0;whiteSpace=wrap;" vertex="1" parent="UMoyZUdoU4AQjq_q_Cfb-5">
          <mxGeometry x="110" y="120" width="180" height="90" as="geometry" />
        </mxCell>
        <mxCell id="UMoyZUdoU4AQjq_q_Cfb-4" value="" style="shape=module;jettyWidth=8;jettyHeight=4;" vertex="1" parent="UMoyZUdoU4AQjq_q_Cfb-3">
          <mxGeometry x="1" width="20" height="20" relative="1" as="geometry">
            <mxPoint x="-27" y="7" as="offset" />
          </mxGeometry>
        </mxCell>
        <mxCell id="prVoeJi2YiEnUUUq6D3m-1" value="&lt;font style=&quot;font-size: 20px;&quot;&gt;Diagramme de composants : Montrer comment les modules du&lt;br&gt;&lt;/font&gt;&lt;div&gt;&lt;font style=&quot;font-size: 20px;&quot;&gt;système sont organisés (Frontend, Backend, Base de données).&lt;/font&gt;&lt;/div&gt;&lt;div&gt;&lt;font style=&quot;font-size: 20px;&quot;&gt;&lt;br&gt;&lt;/font&gt;&lt;/div&gt;&lt;div&gt;&lt;font style=&quot;font-size: 20px;&quot;&gt;À compléter, va falloir que je cherche plus d&#39;info sur comment faire&lt;br&gt;&lt;/font&gt;&lt;/div&gt;" style="text;html=1;align=center;verticalAlign=middle;resizable=0;points=[];autosize=1;strokeColor=none;fillColor=none;" vertex="1" parent="1">
          <mxGeometry x="-14" y="298" width="610" height="110" as="geometry" />
        </mxCell>
        <mxCell id="prVoeJi2YiEnUUUq6D3m-2" value="Back end" style="shape=folder;fontStyle=1;tabWidth=110;tabHeight=30;tabPosition=left;html=1;boundedLbl=1;labelInHeader=1;container=1;collapsible=0;recursiveResize=0;whiteSpace=wrap;" vertex="1" parent="1">
          <mxGeometry x="60" y="770" width="390" height="290" as="geometry" />
        </mxCell>
        <mxCell id="prVoeJi2YiEnUUUq6D3m-3" value="&amp;laquo;Annotation&amp;raquo;&lt;br/&gt;&lt;b&gt;Component&lt;/b&gt;" style="html=1;dropTarget=0;whiteSpace=wrap;" vertex="1" parent="prVoeJi2YiEnUUUq6D3m-2">
          <mxGeometry x="110" y="120" width="180" height="90" as="geometry" />
        </mxCell>
        <mxCell id="prVoeJi2YiEnUUUq6D3m-4" value="" style="shape=module;jettyWidth=8;jettyHeight=4;" vertex="1" parent="prVoeJi2YiEnUUUq6D3m-3">
          <mxGeometry x="1" width="20" height="20" relative="1" as="geometry">
            <mxPoint x="-27" y="7" as="offset" />
          </mxGeometry>
        </mxCell>
        <mxCell id="prVoeJi2YiEnUUUq6D3m-5" value="Services Externes" style="shape=folder;fontStyle=1;tabWidth=110;tabHeight=30;tabPosition=left;html=1;boundedLbl=1;labelInHeader=1;container=1;collapsible=0;recursiveResize=0;whiteSpace=wrap;" vertex="1" parent="1">
          <mxGeometry x="620" y="870" width="390" height="290" as="geometry" />
        </mxCell>
        <mxCell id="prVoeJi2YiEnUUUq6D3m-6" value="&amp;laquo;Annotation&amp;raquo;&lt;br/&gt;&lt;b&gt;Component&lt;/b&gt;" style="html=1;dropTarget=0;whiteSpace=wrap;" vertex="1" parent="prVoeJi2YiEnUUUq6D3m-5">
          <mxGeometry x="110" y="120" width="180" height="90" as="geometry" />
        </mxCell>
        <mxCell id="prVoeJi2YiEnUUUq6D3m-7" value="" style="shape=module;jettyWidth=8;jettyHeight=4;" vertex="1" parent="prVoeJi2YiEnUUUq6D3m-6">
          <mxGeometry x="1" width="20" height="20" relative="1" as="geometry">
            <mxPoint x="-27" y="7" as="offset" />
          </mxGeometry>
        </mxCell>
      </root>
    </mxGraphModel>
  </diagram>
</mxfile>
